# xmcd
#
# Track frame offsets:
#	150
#	18175
#	38680
#	61195
#	83517
#	104572
#	133431
#	151706
#	175876
#	197384
#	212691
#	235039
#	252191
#	278794
#	301182
#
# Disc length: 4482
#
# Revision: 1
# Processed by: cddbd v1.5.1PL0 Copyright (c) Steve Scherf et al.
# Submitted via: Feurio! 1.65 - http://www.feurio.com
# Normalized: r0:DSETVAR1
#
DISCID=b811800f
DTITLE=Various Artist - Renessa's Picks Vol 2
DYEAR=1900
DGENRE=blues
TTITLE0=Smokey Robinson - Daylight and Darkness
TTITLE1=The Voices Of East Harlem - Giving Love
TTITLE2=Phil Perry - Closer To Heaven
TTITLE3=The Jacksons - Good times
TTITLE4=Harold Melvin and The Blue Notes - To Be True
TTITLE5=New Lost Generation - Thinkin' Bout Cha
TTITLE6=G. C. Cameron - My House
TTITLE7=Enchantment - Enchanted Lady
TTITLE8=Enchantment - Don't Fight The Feeling
TTITLE9=Smokey Robinson - I Am I Am
TTITLE10=Gerald Levert - Dream With No Love
TTITLE11=Adriana Evans - love is all around
TTITLE12=LeVert - (Pop, Pop, Pop, Pop) Goes My Mind
TTITLE13=Mike Logan - He'll Never Love You
TTITLE14=Smokey Robinson - Quiet Storm
EXTD=
EXTT0=
EXTT1=
EXTT2=
EXTT3=
EXTT4=
EXTT5=
EXTT6=
EXTT7=
EXTT8=
EXTT9=
EXTT10=
EXTT11=
EXTT12=
EXTT13=
EXTT14=
PLAYORDER=
